<svg xmlns="http://www.w3.org/2000/svg" width="32" height="32" viewBox="0 0 32 32" fill="none">
  <!-- Crisp Background Outlines for contrast on any background -->
  <g filter="drop-shadow(0px 2px 3px rgba(36,20,10,0.35))">
    <!-- Sleek Bakery Arrow Pointer -->
    <path d="M2 1L2 19.5L6.5 15L10.5 24.5L13.8 23L9.8 13.5L15.5 13.5L2 1Z" 
          fill="#3D2314" 
          stroke="#FFFFFF" 
          stroke-width="1.8" 
          stroke-linejoin="round"/>
    
    <!-- Inner Accent Fill for Pointer -->
    <path d="M3.5 3.5L3.5 16.5L7 13L10.8 21.8L12.2 21.2L8.5 12.2L13 12.2L3.5 3.5Z" 
          fill="#E11D48"/>

    <!-- Mini Artisan Cake Slice Accessory -->
    <!-- Cake Base Body -->
    <path d="M16 16L29 19L28 27L15 24L16 16Z" fill="#FDE68A" stroke="#FFFFFF" stroke-width="1.2" stroke-linejoin="round"/>
    <!-- Jam / Chocolate Layer -->
    <path d="M15.5 20L28.5 23L28.2 24.2L15.2 21.2L15.5 20Z" fill="#E11D48"/>
    <!-- Top Vanilla Cream Frosting Swirl -->
    <path d="M15 16C17 14.5 20 17 22 15C24 13.5 27 16 29 17L28.5 19C26.5 18 23.5 15.5 21.5 17C19.5 18.5 17 16.5 15.5 17.5L15 16Z" fill="#FFFDF9" stroke="#E5E7EB" stroke-width="0.6"/>
    
    <!-- Glossy Ruby Cherry on Top -->
    <circle cx="21" cy="12.5" r="2.4" fill="#E11D48" stroke="#FFFFFF" stroke-width="0.8"/>
    <circle cx="20.3" cy="11.8" r="0.7" fill="#FFFFFF"/>
    <!-- Cherry Stem -->
    <path d="M21 10.5C21 8.5 23 7.5 24.5 8" stroke="#4B5563" stroke-width="0.8" stroke-linecap="round"/>

    <!-- Tiny Magic Golden Sparkle -->
    <path d="M27 10L27.8 11.5L29.3 12.3L27.8 13.1L27 14.6L26.2 13.1L24.7 12.3L26.2 11.5L27 10Z" fill="#FBBF24"/>
  </g>
</svg>
